<!-- <svg
  xmlns="http://www.w3.org/2000/svg"
  viewBox="0 0 500 500"
  fill="none"
>
  {/* Dark Blue Hands */}
  <path
    d="M250 450c-20-30-70-60-110-80-40-20-80-10-90 20s40 70 100 80c30 5 70-10 100-20z"
    fill="#003366"
  />
  <path
    d="M250 450c20-30 70-60 110-80 40-20 80-10 90 20s-40 70-100 80c-30 5-70-10-100-20z"
    fill="#003366"
  />
  <path
    d="M110 330c-15-10-40-60-30-110 5-30 30-50 50-40s30 50 20 100c-5 25-20 40-40 50z"
    fill="#003366"
  />
  <path
    d="M390 330c15-10 40-60 30-110-5-30-30-50-50-40s-30 50-20 100c5 25 20 40 40 50z"
    fill="#003366"
  />

  {/* Left Capsule */}
  <rect
    x="100"
    y="230"
    width="120"
    height="60"
    rx="30"
    transform="rotate(-35 160 260)"
    stroke="#4CAF50"
    strokeWidth="8"
  />
  <path
    d="M115 285 A30 30 0 0 1 145 235 L175 215 L145 265 Z"
    fill="#4CAF50"
    transform="rotate(-35 160 260)"
  />

  {/* Right Capsule */}
  <rect
    x="280"
    y="230"
    width="120"
    height="60"
    rx="30"
    transform="rotate(35 340 260)"
    stroke="#4CAF50"
    strokeWidth="8"
  />
  <path
    d="M315 235 A30 30 0 0 1 345 285 L375 265 L345 215 Z"
    fill="#4CAF50"
    transform="rotate(35 340 260)"
  />

  {/* Blue Plus Cross */}
  <rect x="225" y="50" width="50" height="150" fill="#0088EE" rx="5" />
  <rect x="175" y="100" width="150" height="50" fill="#0088EE" rx="5" />

  {/* Green Dots */}
  <circle cx="200" cy="70" r="6" fill="#4CAF50" />
  <circle cx="300" cy="70" r="8" fill="#4CAF50" />
  <circle cx="170" cy="110" r="5" fill="#4CAF50" />
  <circle cx="330" cy="110" r="10" fill="#4CAF50" />
  <circle cx="210" cy="150" r="7" fill="#4CAF50" />
  <circle cx="290" cy="160" r="6" fill="#4CAF50" />
</svg> -->

<svg width="512" height="512" viewBox="0 0 512 512" fill="none" xmlns="http://www.w3.org/2000/svg">
  <rect width="512" height="512" fill="white"/>
  
  <path d="M220 120H292V192H364V264H292V336H220V264H148V192H220V120Z" fill="#0087D1"/>
  
  <rect x="130" y="280" width="100" height="50" rx="25" transform="rotate(-30 130 280)" fill="#72BF44"/>
  <rect x="290" y="230" width="100" height="50" rx="25" transform="rotate(30 290 230)" fill="#72BF44"/>
  
  <path d="M110 350C110 350 150 480 256 480C362 480 402 350 402 350C402 350 350 420 256 420C162 420 110 350 110 350Z" fill="#003B5C"/>
  <path d="M256 480C256 480 220 450 220 420C220 390 256 380 256 380C256 380 292 390 292 420C292 450 256 480 256 480Z" fill="#0087D1"/>
  
  <circle cx="180" cy="150" r="10" fill="#72BF44"/>
  <circle cx="340" cy="160" r="12" fill="#72BF44"/>
  <circle cx="200" cy="100" r="8" fill="#72BF44"/>
  <circle cx="310" cy="110" r="9" fill="#72BF44"/>
</svg>